<svg width="144" height="33" viewBox="0 0 144 33" fill="none" xmlns="http://www.w3.org/2000/svg">
<path d="M38.6976 5.42932C41.3252 5.42932 43.269 6.08621 44.5292 7.39998C45.8161 8.71375 46.4596 10.7112 46.4596 13.3924V25.5381H42.5585V22.2805C42.0491 23.4334 41.285 24.3182 40.2661 24.9348C39.2741 25.5247 38.1078 25.8196 36.7672 25.8196C35.4802 25.8196 34.3005 25.5649 33.2281 25.0555C32.1556 24.5192 31.311 23.7819 30.6944 22.8435C30.1045 21.9051 29.8096 20.8594 29.8096 19.7065C29.8096 18.2855 30.1715 17.1728 30.8954 16.3685C31.6462 15.5373 32.8661 14.9475 34.5552 14.5989C36.2712 14.2504 38.6172 14.0761 41.5933 14.0761H42.5183V12.9098C42.5183 11.4083 42.1966 10.3225 41.5531 9.65216C40.9364 8.98187 39.9176 8.64672 38.4966 8.64672C36.2712 8.64672 34.0458 9.33042 31.8204 10.6978L30.6139 7.84237C31.6596 7.11846 32.9197 6.54201 34.3944 6.11302C35.8958 5.65722 37.3302 5.42932 38.6976 5.42932ZM37.4911 22.8033C38.9658 22.8033 40.1723 22.3073 41.1107 21.3152C42.0491 20.2964 42.5183 18.996 42.5183 17.4141V16.3685H41.7944C39.7031 16.3685 38.0944 16.4623 36.9683 16.65C35.8422 16.8377 35.0378 17.1594 34.5552 17.6152C34.0726 18.0442 33.8313 18.6743 33.8313 19.5055C33.8313 20.4439 34.1665 21.2348 34.8368 21.8783C35.5339 22.495 36.4186 22.8033 37.4911 22.8033Z" fill="white"/>
<path d="M27.4333 22.6827C28.0499 22.6827 28.6532 22.6425 29.2431 22.562V25.6588C28.5728 25.766 27.6746 25.8197 26.9507 25.8197C24.4035 25.8197 22.4999 25.203 21.2398 23.9697C20.0064 22.7095 19.3898 20.8997 19.3898 18.5403V9.04894H15.5691V5.91198H19.3898V0H23.4517V5.91198H28.8409V9.04894H23.4517V18.3794C23.4517 21.2483 24.7789 22.6827 27.4333 22.6827Z" fill="white"/>
<path d="M48.6572 0H52.7192V25.5381H48.6572V0Z" fill="white"/>
<path d="M55.0554 0H59.1174V25.5381H55.0554V0Z" fill="white"/>
<path d="M80.9883 5.95215L69.285 32.7772H65.1828L68.6013 25.0555L60.3567 5.95215H64.6197L70.7328 20.9533L76.9263 5.95215H80.9883Z" fill="white"/>
<path d="M0 1.49839C0 0.67085 0.655982 0 1.46518 0H9.64574C10.4549 0 11.1109 0.67085 11.1109 1.49839V2.48323L6.39154 5.75386C5.94435 6.06377 5.67756 6.57326 5.67756 7.11734C5.67756 7.66141 5.94435 8.1709 6.39154 8.48081L11.1109 11.7514V14.283L6.39154 17.5537C5.94435 17.8636 5.67756 18.3731 5.67756 18.9171C5.67756 19.4612 5.94435 19.9707 6.39154 20.2806L11.1109 23.5512V24.7234C11.1109 25.5509 10.4549 26.2218 9.64574 26.2218H1.46518C0.655981 26.2218 0 25.5509 0 24.7234V1.49839Z" fill="#00C1FF"/>
<path d="M116.569 26V6.64001H118.209V11.36H117.769C118.089 10.2667 118.556 9.34667 119.169 8.60001C119.809 7.85334 120.569 7.29334 121.449 6.92001C122.329 6.52001 123.302 6.32001 124.369 6.32001C126.102 6.32001 127.476 6.74667 128.489 7.60001C129.529 8.42667 130.196 9.69334 130.489 11.4H129.889C130.316 9.85334 131.142 8.62667 132.369 7.72001C133.622 6.78667 135.116 6.32001 136.849 6.32001C138.262 6.32001 139.436 6.60001 140.369 7.16001C141.302 7.69334 142.009 8.50667 142.489 9.60001C142.969 10.6667 143.209 12.0267 143.209 13.68V26H141.529V13.84C141.529 11.7867 141.156 10.28 140.409 9.32001C139.689 8.36001 138.476 7.88001 136.769 7.88001C135.542 7.88001 134.476 8.17334 133.569 8.76001C132.662 9.32001 131.956 10.1333 131.449 11.2C130.969 12.24 130.729 13.4667 130.729 14.88V26H129.049V13.84C129.049 11.7867 128.676 10.28 127.929 9.32001C127.209 8.36001 125.996 7.88001 124.289 7.88001C123.062 7.88001 121.996 8.17334 121.089 8.76001C120.182 9.32001 119.476 10.1333 118.969 11.2C118.489 12.24 118.249 13.4667 118.249 14.88V26H116.569Z" fill="white"/>
<path d="M103.003 26V6.63997H104.643V11.16H104.243C104.777 9.58664 105.617 8.41331 106.763 7.63997C107.91 6.83997 109.417 6.37331 111.283 6.23997L112.123 6.15997L112.323 7.67997L110.963 7.83997C108.99 8.02664 107.443 8.69331 106.323 9.83997C105.23 10.9866 104.683 12.5066 104.683 14.4V26H103.003Z" fill="white"/>
<path d="M91.9601 26.32C90.1201 26.32 88.5335 25.8933 87.2001 25.04C85.8935 24.1867 84.8801 23 84.1601 21.48C83.4668 19.96 83.1201 18.1867 83.1201 16.16C83.1201 14.1333 83.4668 12.3867 84.1601 10.92C84.8801 9.45334 85.8935 8.32001 87.2001 7.52001C88.5335 6.72001 90.1201 6.32001 91.9601 6.32001C93.1335 6.32001 94.2801 6.56001 95.4001 7.04001C96.5201 7.49334 97.4535 8.13334 98.2001 8.96001L97.4001 10.28C96.5468 9.42667 95.6401 8.81334 94.6801 8.44001C93.7201 8.06667 92.8001 7.88001 91.9201 7.88001C89.6535 7.88001 87.9068 8.60001 86.6801 10.04C85.4535 11.48 84.8401 13.5333 84.8401 16.2C84.8401 18.8667 85.4535 20.96 86.6801 22.48C87.9068 24 89.6535 24.76 91.9201 24.76C92.8001 24.76 93.7201 24.5733 94.6801 24.2C95.6401 23.8267 96.5468 23.2133 97.4001 22.36L98.2001 23.68C97.4535 24.5067 96.5068 25.16 95.3601 25.64C94.2135 26.0933 93.0801 26.32 91.9601 26.32Z" fill="white"/>
</svg>
